<?xml version="1.0" standalone="no"?>
<!DOCTYPE svg PUBLIC "-//W3C//DTD SVG 20010904//EN"
 "http://www.w3.org/TR/2001/REC-SVG-20010904/DTD/svg10.dtd">
<svg version="1.0" xmlns="http://www.w3.org/2000/svg"
 width="700.000000pt" height="700.000000pt" viewBox="0 0 700.000000 700.000000"
 preserveAspectRatio="xMidYMid meet">
<metadata>
Created by potrace 1.11, written by Peter Selinger 2001-2013
</metadata>
<g transform="translate(0.000000,700.000000) scale(0.100000,-0.100000)"
fill="#000000" stroke="none">
<path d="M3269 6886 c-2 -2 -42 -7 -89 -11 -47 -4 -94 -9 -105 -11 -11 -2 -42
-6 -70 -9 -145 -17 -431 -86 -616 -151 -485 -169 -901 -428 -1264 -789 -245
-243 -356 -383 -529 -667 -172 -282 -332 -670 -391 -948 -2 -8 -9 -37 -15 -65
-15 -62 -17 -74 -24 -116 -3 -19 -8 -43 -10 -55 -2 -12 -7 -45 -11 -74 -4 -29
-9 -62 -11 -74 -25 -125 -25 -697 1 -835 1 -9 6 -41 10 -71 60 -458 257 -973
528 -1380 141 -211 250 -344 432 -525 199 -199 311 -290 546 -444 255 -169
618 -339 869 -407 216 -59 365 -92 493 -109 27 -4 57 -8 66 -10 102 -20 610
-28 736 -12 33 4 80 10 105 13 215 25 512 95 720 169 329 118 691 318 956 530
157 126 348 308 465 445 35 41 66 77 69 80 48 46 243 331 319 468 57 100 174
341 186 382 4 14 11 30 15 35 4 6 31 78 59 160 68 202 116 401 146 610 4 22 8
50 10 62 13 80 20 229 20 428 0 245 -8 351 -36 525 -6 36 -13 79 -16 95 -12
76 -75 322 -111 430 -57 173 -97 272 -175 430 -179 364 -368 627 -651 910
-207 207 -414 370 -646 510 -85 52 -381 205 -395 205 -3 0 -24 9 -48 19 -129
59 -435 155 -592 187 -44 9 -142 26 -170 31 -16 2 -41 6 -55 9 -14 2 -52 6
-85 10 -33 3 -71 8 -85 11 -28 6 -546 14 -551 9z m-665 -1650 c29 -9 133 -64
230 -123 97 -60 189 -115 204 -124 15 -9 162 -98 327 -199 165 -100 314 -191
330 -200 39 -23 1061 -645 1218 -741 48 -30 109 -66 135 -81 107 -60 168 -135
192 -237 34 -144 -38 -295 -176 -370 -21 -12 -46 -25 -54 -31 -18 -11 -276
-159 -305 -175 -24 -13 -234 -133 -276 -157 -16 -10 -202 -116 -412 -237 -210
-120 -454 -260 -542 -311 -88 -50 -178 -102 -200 -114 -22 -13 -85 -49 -140
-81 -55 -32 -116 -67 -135 -78 -19 -11 -101 -57 -181 -103 -202 -115 -223
-123 -311 -121 -128 4 -231 71 -289 191 l-31 61 0 1476 c0 812 3 1492 7 1510
15 68 68 150 127 198 33 26 127 57 178 60 28 1 75 -5 104 -13z"/>
</g>
</svg>
